<?xml version="1.0" standalone="no"?>
<!DOCTYPE svg PUBLIC "-//W3C//DTD SVG 20010904//EN"
 "http://www.w3.org/TR/2001/REC-SVG-20010904/DTD/svg10.dtd">
<svg version="1.0" xmlns="http://www.w3.org/2000/svg"
 width="804.000000pt" height="804.000000pt" viewBox="0 0 804.000000 804.000000"
 preserveAspectRatio="xMidYMid meet">
<metadata>
Created by potrace 1.11, written by Peter Selinger 2001-2013
</metadata>
<g transform="translate(0.000000,804.000000) scale(0.100000,-0.100000)"
fill="#000000" stroke="none">
<path d="M3749 8036 c-2 -2 -40 -6 -84 -10 -44 -3 -91 -8 -104 -11 -13 -2 -47
-7 -75 -10 -28 -3 -64 -7 -81 -11 -39 -7 -163 -32 -195 -38 -14 -3 -38 -8 -55
-12 -62 -13 -274 -75 -385 -113 -735 -251 -1395 -740 -1857 -1376 -82 -114
-193 -281 -193 -292 0 -4 -7 -14 -15 -23 -9 -10 -60 -105 -114 -211 -86 -172
-139 -296 -211 -494 -27 -74 -99 -328 -106 -375 -3 -19 -8 -38 -10 -42 -5 -7
-42 -209 -49 -263 -5 -39 -14 -102 -19 -140 -26 -183 -26 -700 -1 -855 2 -14
6 -47 9 -74 14 -124 56 -339 92 -476 178 -671 517 -1263 1004 -1750 258 -259
521 -460 840 -644 90 -52 348 -174 460 -218 153 -61 154 -61 160 -63 3 0 50
-15 105 -32 206 -65 356 -100 585 -137 126 -21 548 -29 700 -13 256 25 418 61
670 148 107 37 319 150 410 218 322 243 400 566 212 876 -20 33 -73 96 -117
141 -162 163 -352 257 -620 308 -91 17 -255 22 -365 12 -248 -25 -484 -156
-570 -317 -28 -54 -33 -73 -34 -135 0 -62 3 -77 29 -120 34 -53 90 -88 165
-102 65 -12 79 -3 29 20 -64 28 -109 87 -109 141 0 78 74 183 159 226 168 86
423 70 600 -37 199 -120 294 -329 251 -552 -31 -167 -181 -330 -407 -444 -103
-52 -313 -115 -453 -136 -169 -25 -453 -33 -610 -17 -371 39 -749 157 -1063
332 -580 325 -980 820 -1145 1420 -69 250 -96 450 -96 705 0 273 20 432 89
710 177 708 662 1460 1310 2031 525 463 1176 810 1905 1014 133 37 363 90 440
100 19 3 42 7 50 10 8 3 35 7 60 10 25 3 56 7 70 10 80 15 261 33 405 41 123
6 538 6 620 0 33 -3 101 -8 150 -11 50 -4 101 -8 115 -10 14 -2 72 -9 130 -16
58 -6 114 -13 125 -14 55 -8 115 -17 159 -26 80 -15 84 -13 41 32 -35 36 -247
226 -301 269 -265 213 -597 414 -884 535 -36 15 -85 36 -109 47 -99 44 -475
160 -591 182 -14 3 -59 12 -100 20 -72 14 -246 41 -339 53 -54 6 -676 15 -682
9z"/>
<path d="M5967 6714 c-1 -1 -58 -4 -127 -8 -69 -3 -141 -8 -160 -10 -19 -3
-62 -7 -95 -11 -33 -3 -73 -8 -90 -10 -16 -3 -50 -7 -75 -10 -25 -3 -54 -7
-65 -9 -11 -2 -42 -7 -70 -11 -46 -6 -275 -50 -320 -61 -11 -3 -31 -7 -45 -10
-75 -16 -305 -79 -431 -120 -454 -146 -868 -349 -1269 -622 -147 -101 -415
-304 -450 -342 -3 -3 -34 -30 -70 -60 -112 -96 -180 -160 -390 -370 -278 -278
-386 -412 -575 -720 -34 -57 -149 -289 -183 -370 -77 -188 -151 -446 -178
-624 -3 -21 -7 -46 -9 -55 -1 -9 -6 -47 -10 -86 -4 -38 -9 -86 -11 -105 -6
-50 -5 -313 1 -395 15 -216 66 -422 152 -625 156 -364 436 -716 768 -964 223
-167 388 -253 655 -343 41 -14 86 -27 100 -29 14 -3 48 -11 75 -18 56 -15 145
-32 220 -42 28 -3 52 -7 55 -9 11 -7 232 -18 330 -17 198 1 361 26 520 77 251
80 453 244 523 423 25 62 33 180 17 239 -47 171 -184 295 -375 339 -108 24
-241 10 -341 -35 -74 -34 -112 -80 -119 -142 -5 -38 -2 -48 17 -66 13 -11 31
-23 41 -26 15 -6 16 -3 7 13 -30 56 1 115 77 148 110 47 269 -4 335 -109 43
-69 50 -166 17 -254 -53 -142 -269 -282 -494 -320 -22 -4 -59 -10 -81 -14 -73
-14 -263 -4 -371 18 -420 87 -820 383 -997 738 -37 75 -81 200 -90 258 -4 20
-8 40 -10 44 -9 14 -20 142 -21 241 -3 308 93 615 295 946 163 265 434 562
719 788 475 375 1018 615 1611 711 19 3 46 7 60 10 14 2 41 6 60 9 19 2 69 9
110 15 341 47 801 49 1235 6 96 -10 214 -24 255 -30 14 -2 57 -9 95 -15 109
-17 115 -18 262 -51 273 -61 538 -165 672 -264 61 -45 134 -128 146 -166 33
-103 19 262 -21 541 -23 163 -49 294 -81 410 -8 30 -21 78 -28 105 -80 312
-320 832 -477 1033 -113 145 -230 236 -398 309 -119 52 -217 77 -385 99 -22 3
-53 7 -70 9 -65 9 -441 25 -448 19z"/>
<path d="M5767 4404 c-1 -1 -57 -5 -124 -9 -67 -3 -130 -7 -140 -9 -10 -2 -45
-6 -78 -10 -33 -4 -82 -11 -110 -16 -27 -5 -66 -12 -85 -14 -196 -30 -489
-102 -696 -171 -426 -142 -789 -326 -1104 -561 -90 -66 -334 -297 -395 -374
-208 -259 -335 -483 -415 -733 -12 -37 -23 -73 -24 -80 -1 -7 -5 -21 -9 -32
-8 -25 -16 -67 -23 -125 -3 -24 -8 -48 -10 -52 -6 -9 -6 -256 0 -284 2 -12 7
-37 10 -55 12 -74 18 -93 46 -172 54 -148 144 -274 279 -391 141 -121 376
-234 566 -271 152 -29 382 -26 510 7 22 5 49 12 59 14 93 18 204 72 267 131
158 148 110 324 -106 384 l-30 8 28 -20 c43 -33 66 -87 62 -147 -5 -61 -14
-80 -59 -120 -57 -50 -136 -74 -256 -78 -316 -10 -556 172 -627 476 -23 101
-22 282 2 370 44 160 124 291 259 425 187 184 511 360 823 446 89 24 286 66
353 74 25 3 54 8 65 10 97 20 560 27 705 12 399 -43 720 -146 975 -314 219
-145 358 -292 440 -468 66 -141 80 -205 80 -382 l0 -152 24 27 c119 135 306
421 431 657 191 361 375 934 365 1134 -12 226 -189 430 -506 580 -93 44 -282
116 -333 127 -11 2 -40 10 -65 18 -56 19 -291 71 -386 86 -83 13 -100 16 -185
25 -36 4 -78 8 -95 10 -90 12 -480 26 -488 19z"/>
</g>
</svg>
